<?xml version="1.0" encoding="iso-8859-1"?>
<!-- Generator: Adobe Illustrator 25.3.0, SVG Export Plug-In . SVG Version: 6.00 Build 0)  -->
<svg version="1.1" id="Laag_22" xmlns="http://www.w3.org/2000/svg" xmlns:xlink="http://www.w3.org/1999/xlink" x="0px" y="0px"
	 viewBox="0 0 1825.998 888.995" style="enable-background:new 0 0 1825.998 888.995;" xml:space="preserve">
<path style="opacity:0.8;" d="M1790.054,888.995H35.944C16.093,888.995,0,872.902,0,853.051V35.944C0,16.093,16.093,0,35.944,0
	l1754.111,0c19.851,0,35.944,16.093,35.944,35.944v817.107C1825.998,872.902,1809.906,888.995,1790.054,888.995z"/>
<g>
	<defs>
		<path id="SVGID_1_" d="M1790.054,888.995H35.944C16.093,888.995,0,872.902,0,853.051V35.944C0,16.093,16.093,0,35.944,0
			l1754.111,0c19.851,0,35.944,16.093,35.944,35.944v817.107C1825.998,872.902,1809.906,888.995,1790.054,888.995z"/>
	</defs>
	<clipPath id="SVGID_2_">
		<use xlink:href="#SVGID_1_"  style="overflow:visible;"/>
	</clipPath>
	<g style="clip-path:url(#SVGID_2_);">
		<path style="fill:none;stroke:#FFFFFF;stroke-width:5;stroke-miterlimit:10;" d="M192.255,168.172v-13.817
			c0-5.933,3.414-11.339,8.791-13.847c14.879-6.938,48.984-18.419,104.891-13.391c53.719,4.832,79.102,17.09,89.719,24.278
			c4.16,2.817,6.601,7.56,6.601,12.584v9.62"/>
		<path style="fill:none;stroke:#FFFFFF;stroke-width:5;stroke-miterlimit:10;" d="M-166.008,179.896H45.484
			c8.215,0,14.875,6.66,14.875,14.875v262.526c0,29.671-24.053,53.725-53.725,53.725h-172.642"/>
		<path style="fill:none;stroke:#FFFFFF;stroke-width:5;stroke-miterlimit:10;" d="M131.264,293.868h-12.563
			c-7.448,0-13.485-6.038-13.485-13.485v-42.835c0-7.448,6.038-13.485,13.485-13.485h12.563c7.448,0,13.485,6.038,13.485,13.485
			v42.835C144.75,287.831,138.712,293.868,131.264,293.868z"/>
		<circle style="fill:none;stroke:#FFFFFF;stroke-width:5;stroke-miterlimit:10;" cx="48.685" cy="677.464" r="133.049"/>
		<circle style="fill:none;stroke:#FFFFFF;stroke-width:5;stroke-miterlimit:10;" cx="307.864" cy="443.104" r="199.876"/>
		<circle style="fill:none;stroke:#FFFFFF;stroke-width:5;stroke-miterlimit:10;" cx="48.685" cy="677.464" r="92.655"/>
		<circle style="fill:none;stroke:#FFFFFF;stroke-width:5;stroke-miterlimit:10;" cx="48.685" cy="677.464" r="59.303"/>
		<path style="fill:none;stroke:#FFFFFF;stroke-width:5;stroke-linecap:round;stroke-linejoin:round;stroke-miterlimit:10;" d="
			M-166.008,808.338h97.064c0,0,120.335,109.656,229.991,0l25.457,18.145c0,0,43.477,194.613,142.854,312.623
			c99.377,118.01,215.317,57.97,262.935-26.915s39.337-219.457,16.563-349.889c0,0-35.146-188.164-67.734-320.739
			c-16.241-66.071-41.561-129.571-75.331-188.636c-13.04-22.808-27.111-46.177-39.376-63.777
			c-5.389-7.733-13.474-13.14-22.668-15.22c-35.401-8.009-128.87-17.709-214.095-5.389c-8.676,1.254-16.848,4.842-23.755,10.239
			l-1.979,1.546c-3.869,3.023-8.644,4.655-13.554,4.633l-94.1-0.417"/>
		<path style="fill:none;stroke:#FFFFFF;stroke-width:7.3289;stroke-miterlimit:10;" d="M272.194,1053.792
			c39.281,22.63,107.5,41.664,217.304,15.489c53.063-12.649,102.948-47.744,137.544-120.56"/>
		<g id="o_5_">
			<circle style="fill:none;stroke:#FFFFFF;stroke-width:5;stroke-miterlimit:10;" cx="424.568" cy="445.545" r="51.483"/>
			<circle style="fill:none;stroke:#E23737;stroke-width:5;stroke-miterlimit:10;" cx="424.685" cy="445.545" r="28.368"/>
		</g>
		<g id="_x5B___x5D__5_">
			<circle style="fill:none;stroke:#FFFFFF;stroke-width:5;stroke-miterlimit:10;" cx="192.208" cy="445.545" r="51.483"/>
			
				<rect x="167.749" y="421.086" style="fill:none;stroke:#8E449E;stroke-width:5;stroke-miterlimit:10;" width="48.917" height="48.917"/>
		</g>
		<g id="x_5_">
			<circle style="fill:none;stroke:#FFFFFF;stroke-width:5;stroke-miterlimit:10;" cx="308.388" cy="561.725" r="51.483"/>
			
				<line style="fill:none;stroke:#2EB0CB;stroke-width:5;stroke-miterlimit:10;" x1="285.025" y1="536.163" x2="334.239" y2="585.377"/>
			
				<line style="fill:none;stroke:#2EB0CB;stroke-width:5;stroke-miterlimit:10;" x1="334.718" y1="535.684" x2="285.504" y2="584.898"/>
		</g>
		<g id="v_6_">
			<circle style="fill:none;stroke:#FFFFFF;stroke-width:5;stroke-miterlimit:10;" cx="308.388" cy="329.364" r="51.483"/>
			<polygon style="fill:none;stroke:#239B47;stroke-width:5;stroke-miterlimit:10;" points="310.146,346.174 282.959,346.174 
				296.553,322.63 310.146,299.086 323.739,322.63 337.333,346.174 			"/>
		</g>
		<g id="letters_1_" style="opacity:0.3;">
			<g>
				<path style="fill:#FFFFFF;" d="M314.145,410.728l2.242-10.971h2.514l-3.363,14.574h-2.422l-2.773-10.64l-2.832,10.64h-2.434
					l-3.363-14.574h2.514l2.262,10.951l2.783-10.951h2.121L314.145,410.728z"/>
			</g>
			<g>
				<path style="fill:#FFFFFF;" d="M311.798,487.856c0-0.641-0.225-1.135-0.676-1.481s-1.264-0.697-2.438-1.051
					c-1.174-0.354-2.109-0.747-2.803-1.181c-1.328-0.834-1.992-1.922-1.992-3.263c0-1.174,0.479-2.142,1.438-2.903
					c0.957-0.761,2.199-1.141,3.729-1.141c1.014,0,1.918,0.187,2.711,0.561c0.795,0.374,1.418,0.906,1.873,1.597
					c0.453,0.69,0.68,1.456,0.68,2.297h-2.521c0-0.761-0.238-1.356-0.717-1.787c-0.477-0.43-1.158-0.646-2.047-0.646
					c-0.826,0-1.469,0.177-1.926,0.531c-0.457,0.354-0.686,0.848-0.686,1.481c0,0.534,0.246,0.979,0.74,1.336
					c0.494,0.357,1.309,0.704,2.441,1.041c1.135,0.337,2.047,0.721,2.734,1.151c0.686,0.43,1.189,0.924,1.51,1.481
					s0.48,1.209,0.48,1.957c0,1.215-0.465,2.18-1.395,2.898c-0.932,0.718-2.195,1.076-3.789,1.076c-1.055,0-2.023-0.195-2.908-0.585
					c-0.885-0.391-1.572-0.929-2.062-1.617c-0.49-0.687-0.736-1.488-0.736-2.402h2.533c0,0.828,0.273,1.468,0.82,1.922
					c0.547,0.454,1.332,0.681,2.354,0.681c0.881,0,1.543-0.178,1.986-0.536C311.575,488.915,311.798,488.443,311.798,487.856z"/>
			</g>
			<g>
				<path style="fill:#FFFFFF;" d="M272.286,451.019h-5.646l-1.182,3.393h-2.633l5.506-14.574h2.273l5.514,14.574h-2.643
					L272.286,451.019z M267.35,448.977h4.225l-2.113-6.046L267.35,448.977z"/>
			</g>
			<g>
				<path style="fill:#FFFFFF;" d="M343.819,454.412v-14.574h4.303c1.289,0,2.432,0.287,3.43,0.861
					c0.998,0.574,1.77,1.388,2.316,2.442c0.547,1.055,0.82,2.262,0.82,3.624v0.731c0,1.381-0.273,2.596-0.824,3.644
					s-1.336,1.855-2.354,2.422s-2.184,0.851-3.498,0.851H343.819z M346.35,441.88v10.51h1.652c1.328,0,2.348-0.416,3.059-1.246
					c0.711-0.831,1.072-2.024,1.086-3.579v-0.811c0-1.582-0.344-2.789-1.031-3.624c-0.688-0.834-1.686-1.251-2.994-1.251H346.35z"/>
			</g>
		</g>
	</g>
</g>
<g>
</g>
<g>
</g>
<g>
</g>
<g>
</g>
<g>
</g>
<g>
</g>
</svg>
