<?xml version="1.0" encoding="utf-8"?>
<!-- Generator: Adobe Illustrator 25.3.0, SVG Export Plug-In . SVG Version: 6.00 Build 0)  -->
<svg version="1.1" id="Laag_22" xmlns="http://www.w3.org/2000/svg" xmlns:xlink="http://www.w3.org/1999/xlink" x="0px" y="0px"
	 viewBox="0 0 1826 889" style="enable-background:new 0 0 1826 889;" xml:space="preserve">
<style type="text/css">
	.st0{opacity:0.7;enable-background:new    ;}
	.st1{clip-path:url(#SVGID_2_);}
	.st2{fill:none;stroke:#FFFFFF;stroke-width:5;stroke-miterlimit:10;}
	.st3{fill:none;stroke:#FFFFFF;stroke-width:4.9999;stroke-miterlimit:9.9997;}
	.st4{fill:none;stroke:#FFFFFF;stroke-width:5;stroke-linecap:round;stroke-linejoin:round;stroke-miterlimit:10;}
	.st5{fill:none;stroke:#FFFFFF;stroke-width:7.3289;stroke-miterlimit:10;}
	.st6{display:none;fill:none;stroke:#E23737;stroke-width:5;stroke-miterlimit:10;}
	.st7{display:none;fill:none;stroke:#8E449E;stroke-width:5;stroke-miterlimit:10;}
	.st8{display:none;fill:none;stroke:#2EB0CB;stroke-width:5;stroke-miterlimit:10;}
	.st9{display:none;fill:none;stroke:#239B47;stroke-width:5;stroke-miterlimit:10;}
	.st10{display:none;opacity:0.3;}
	.st11{display:inline;}
	.st12{fill:#FFFFFF;}
</style>
<path class="st0" d="M1790.1,889H35.9C16.1,889,0,872.9,0,853.1V35.9C0,16.1,16.1,0,35.9,0H1790c19.9,0,35.9,16.1,35.9,35.9V853
	C1826,872.9,1809.9,889,1790.1,889z"/>
<g>
	<g>
		<g>
			<defs>
				<path id="SVGID_1_" d="M1790.1,889H35.9C16.1,889,0,872.9,0,853.1V35.9C0,16.1,16.1,0,35.9,0H1790c19.9,0,35.9,16.1,35.9,35.9
					V853C1826,872.9,1809.9,889,1790.1,889z"/>
			</defs>
			<clipPath id="SVGID_2_">
				<use xlink:href="#SVGID_1_"  style="overflow:visible;"/>
			</clipPath>
			<g class="st1">
				<path class="st2" d="M192.3,168.2v-13.8c0-5.9,3.4-11.3,8.8-13.8c14.9-6.9,49-18.4,104.9-13.4c53.7,4.8,79.1,17.1,89.7,24.3
					c4.2,2.8,6.6,7.6,6.6,12.6v9.6"/>
				<path class="st2" d="M-166,179.9H45.5c8.2,0,14.9,6.7,14.9,14.9v262.5C60.4,487,36.3,511,6.6,511H-166"/>
				<path class="st2" d="M131.3,293.9h-12.6c-7.4,0-13.5-6-13.5-13.5v-42.8c0-7.4,6-13.5,13.5-13.5h12.6c7.4,0,13.5,6,13.5,13.5
					v42.8C144.8,287.8,138.7,293.9,131.3,293.9z"/>
				<circle class="st2" cx="48.7" cy="677.5" r="133"/>
				<circle class="st2" cx="307.9" cy="443.1" r="199.9"/>
				<circle class="st2" cx="48.7" cy="677.5" r="92.7"/>
				<ellipse class="st3" cx="48.7" cy="677.5" rx="59.3" ry="59.3"/>
				<path class="st4" d="M-166,808.3h97.1c0,0,120.3,109.7,230,0l25.5,18.1c0,0,43.5,194.6,142.9,312.6s215.3,58,262.9-26.9
					s39.3-219.5,16.6-349.9c0,0-35.1-188.2-67.7-320.7c-16.2-66.1-41.6-129.6-75.3-188.6c-13-22.8-27.1-46.2-39.4-63.8
					c-5.4-7.7-13.5-13.1-22.7-15.2c-35.4-8-128.9-17.7-214.1-5.4c-8.7,1.3-16.8,4.8-23.8,10.2l-2,1.5c-3.9,3-8.6,4.7-13.6,4.6
					l-94.1-0.4"/>
				<path class="st5" d="M272.2,1053.8c39.3,22.6,107.5,41.7,217.3,15.5c53.1-12.6,102.9-47.7,137.5-120.6"/>
				<g id="o_5_">
					<circle class="st2" cx="424.6" cy="445.5" r="51.5"/>
					<circle class="st6" cx="424.7" cy="445.5" r="28.4"/>
				</g>
				<g id="_x5B___x5D__5_">
					<circle class="st2" cx="192.2" cy="445.5" r="51.5"/>
					<rect x="167.7" y="421.1" class="st7" width="48.9" height="48.9"/>
				</g>
				<g id="x_5_">
					<circle class="st2" cx="308.4" cy="561.7" r="51.5"/>
					<line class="st8" x1="285" y1="536.2" x2="334.2" y2="585.4"/>
					<line class="st8" x1="334.7" y1="535.7" x2="285.5" y2="584.9"/>
				</g>
				<g id="v_6_">
					<circle class="st2" cx="308.4" cy="329.4" r="51.5"/>
					<polygon class="st9" points="310.1,346.2 283,346.2 296.6,322.6 310.1,299.1 323.7,322.6 337.3,346.2 					"/>
				</g>
				<g id="letters_1_" class="st10">
					<g class="st11">
						<path class="st12" d="M314.1,410.7l2.2-11h2.5l-3.4,14.6H313l-2.8-10.6l-2.8,10.6H305l-3.4-14.6h2.5l2.3,11l2.8-11h2.1
							L314.1,410.7z"/>
					</g>
					<g class="st11">
						<path class="st12" d="M311.8,487.9c0-0.6-0.2-1.1-0.7-1.5s-1.3-0.7-2.4-1.1c-1.2-0.4-2.1-0.7-2.8-1.2c-1.3-0.8-2-1.9-2-3.3
							c0-1.2,0.5-2.1,1.4-2.9c1-0.8,2.2-1.1,3.7-1.1c1,0,1.9,0.2,2.7,0.6c0.8,0.4,1.4,0.9,1.9,1.6s0.7,1.5,0.7,2.3h-2.5
							c0-0.8-0.2-1.4-0.7-1.8s-1.2-0.6-2-0.6s-1.5,0.2-1.9,0.5s-0.7,0.8-0.7,1.5c0,0.5,0.2,1,0.7,1.3s1.3,0.7,2.4,1s2,0.7,2.7,1.2
							c0.7,0.4,1.2,0.9,1.5,1.5s0.5,1.2,0.5,2c0,1.2-0.5,2.2-1.4,2.9c-0.9,0.7-2.2,1.1-3.8,1.1c-1.1,0-2-0.2-2.9-0.6
							s-1.6-0.9-2.1-1.6s-0.7-1.5-0.7-2.4h2.5c0,0.8,0.3,1.5,0.8,1.9s1.3,0.7,2.4,0.7c0.9,0,1.5-0.2,2-0.5
							C311.6,488.9,311.8,488.4,311.8,487.9z"/>
					</g>
					<g class="st11">
						<path class="st12" d="M272.3,451h-5.6l-1.2,3.4h-2.6l5.5-14.6h2.3l5.5,14.6h-2.6L272.3,451z M267.4,449h4.2l-2.1-6L267.4,449z
							"/>
					</g>
					<g class="st11">
						<path class="st12" d="M343.8,454.4v-14.6h4.3c1.3,0,2.4,0.3,3.4,0.9s1.8,1.4,2.3,2.4c0.5,1.1,0.8,2.3,0.8,3.6v0.7
							c0,1.4-0.3,2.6-0.8,3.6s-1.3,1.9-2.4,2.4s-2.2,0.9-3.5,0.9L343.8,454.4L343.8,454.4z M346.4,441.9v10.5h1.7
							c1.3,0,2.3-0.4,3.1-1.2c0.7-0.8,1.1-2,1.1-3.6v-0.8c0-1.6-0.3-2.8-1-3.6c-0.7-0.8-1.7-1.3-3-1.3H346.4L346.4,441.9z"/>
					</g>
				</g>
			</g>
		</g>
	</g>
</g>
</svg>
