<?xml version="1.0" encoding="iso-8859-1"?>
<!-- Generator: Adobe Illustrator 25.3.0, SVG Export Plug-In . SVG Version: 6.00 Build 0)  -->
<svg version="1.1" id="Layer_1" xmlns="http://www.w3.org/2000/svg" xmlns:xlink="http://www.w3.org/1999/xlink" x="0px" y="0px"
	 viewBox="-49 229.275 512 335.45" style="enable-background:new -49 229.275 512 335.45;" xml:space="preserve">
<path style="fill:#41479B;" d="M424.655,229.276h-435.31c-21.178,0-38.345,17.167-38.345,38.345V526.38
	c0,21.177,17.167,38.345,38.345,38.345h435.31c21.177,0,38.345-17.167,38.345-38.345V267.621
	C463,246.443,445.833,229.276,424.655,229.276z"/>
<path style="fill:#F5F5F5;" d="M462.469,261.282c-3.022-18.159-18.797-32.007-37.814-32.007h-9.977l-163.54,107.147V229.276h-88.276
	v107.147L-0.678,229.276h-9.977c-19.017,0-34.792,13.847-37.814,32.007l139.778,91.58H-49v88.276H91.309l-139.778,91.578
	c3.022,18.159,18.797,32.007,37.814,32.007h9.977l163.54-107.147v107.147h88.276V457.577l163.54,107.147h9.977
	c19.017,0,34.792-13.847,37.814-32.007l-139.778-91.58H463v-88.276H322.691L462.469,261.282z"/>
<g>
	<polygon style="fill:#FF4B55;" points="233.483,229.276 180.517,229.276 180.517,370.517 -49,370.517 -49,423.483 180.517,423.483 
		180.517,564.724 233.483,564.724 233.483,423.483 463,423.483 463,370.517 233.483,370.517 	"/>
	<path style="fill:#FF4B55;" d="M-24.207,562.252l186.583-121.114h-32.428L-39.776,551.31
		C-35.623,556.157-30.286,559.955-24.207,562.252z"/>
	<path style="fill:#FF4B55;" d="M297.388,441.138H264.96l180.716,117.305c5.057-3.321,9.277-7.807,12.287-13.075L297.388,441.138z"
		/>
	<path style="fill:#FF4B55;" d="M-44.951,250.475l157.73,102.387h32.428l-178.732-116.02
		C-38.324,240.414-42.251,245.084-44.951,250.475z"/>
	<path style="fill:#FF4B55;" d="M283.566,352.862l170.035-110.375c-4.199-4.831-9.578-8.607-15.699-10.86L251.138,352.862H283.566z"
		/>
</g>
</svg>
