<?xml version="1.0" encoding="iso-8859-1"?>
<!-- Generator: Adobe Illustrator 25.3.0, SVG Export Plug-In . SVG Version: 6.00 Build 0)  -->
<svg version="1.1" id="Layer_1" xmlns="http://www.w3.org/2000/svg" xmlns:xlink="http://www.w3.org/1999/xlink" x="0px" y="0px"
	 viewBox="-49 229.276 512 335.448" style="enable-background:new -49 229.276 512 335.448;" xml:space="preserve">
<g>
	<path style="fill:#C8414B;" d="M-49,526.379c0,21.177,17.167,38.345,38.345,38.345h435.31c21.177,0,38.345-17.167,38.345-38.345
		v-32.276H-49V526.379z"/>
	<path style="fill:#C8414B;" d="M424.655,229.276h-435.31c-21.178,0-38.345,17.167-38.345,38.345v32.276h512v-32.276
		C463,246.443,445.833,229.276,424.655,229.276z"/>
</g>
<rect x="-49" y="299.9" style="fill:#FFD250;" width="512" height="194.21"/>
<path style="fill:#C8414B;" d="M167.276,397l7.485-33.681c0.69-3.102-1.671-6.044-4.849-6.044h-5.272
	c-3.177,0-5.537,2.943-4.849,6.044L167.276,397z"/>
<rect x="158.45" y="379.34" style="fill:#F5F5F5;" width="17.655" height="75.03"/>
<rect x="154.03" y="370.52" style="fill:#FAB446;" width="26.483" height="8.828"/>
<g>
	<rect x="136.38" y="397" style="fill:#C8414B;" width="44.14" height="8.828"/>
	<polygon style="fill:#C8414B;" points="180.517,432.31 154.034,423.483 154.034,414.655 180.517,423.483 	"/>
	<path style="fill:#C8414B;" d="M34.862,397l7.485-33.681c0.69-3.102-1.671-6.044-4.849-6.044h-5.272
		c-3.177,0-5.537,2.943-4.849,6.044L34.862,397z"/>
</g>
<path style="fill:#F5F5F5;" d="M65.759,370.517c-4.875,0-8.828,3.953-8.828,8.828v57.379c0,10.725,10.01,30.897,44.138,30.897
	s44.138-20.171,44.138-30.897v-57.379c0-4.875-3.953-8.828-8.828-8.828H65.759z"/>
<g>
	<path style="fill:#C8414B;" d="M101.069,414.655H56.931v-35.31c0-4.875,3.953-8.828,8.828-8.828h35.31V414.655z"/>
	<path style="fill:#C8414B;" d="M101.069,414.655h44.138v22.069c0,12.189-9.88,22.069-22.069,22.069l0,0
		c-12.189,0-22.069-9.88-22.069-22.069V414.655z"/>
</g>
<path style="fill:#FAB446;" d="M56.931,414.655h44.138v22.069c0,12.189-9.88,22.069-22.069,22.069l0,0
	c-12.189,0-22.069-9.88-22.069-22.069V414.655z"/>
<g>
	<path style="fill:#C8414B;" d="M92.241,454.28v-39.625h-8.828v43.693C86.697,457.682,89.664,456.228,92.241,454.28z"/>
	<path style="fill:#C8414B;" d="M74.586,458.348v-43.693h-8.828v39.625C68.336,456.228,71.303,457.682,74.586,458.348z"/>
</g>
<rect x="65.76" y="397" style="fill:#FFB441;" width="26.483" height="8.828"/>
<g>
	<rect x="65.76" y="379.34" style="fill:#FAB446;" width="26.483" height="8.828"/>
	<rect x="70.17" y="384.59" style="fill:#FAB446;" width="17.655" height="15.992"/>
</g>
<rect x="26.03" y="379.34" style="fill:#F5F5F5;" width="17.655" height="75.03"/>
<g>
	<rect x="21.62" y="449.97" style="fill:#FAB446;" width="26.483" height="8.828"/>
	<rect x="21.62" y="370.52" style="fill:#FAB446;" width="26.483" height="8.828"/>
</g>
<rect x="17.21" y="458.79" style="fill:#5064AA;" width="35.31" height="8.828"/>
<rect x="158.45" y="449.97" style="fill:#FAB446;" width="26.483" height="8.828"/>
<rect x="149.62" y="458.79" style="fill:#5064AA;" width="35.31" height="8.828"/>
<rect x="74.59" y="361.69" style="fill:#FAB446;" width="52.966" height="8.828"/>
<rect x="96.66" y="335.21" style="fill:#FFB441;" width="8.828" height="26.483"/>
<g>
	<path style="fill:#F5F5F5;" d="M92.241,348.448c-7.302,0-13.241-5.94-13.241-13.241c0-7.302,5.94-13.241,13.241-13.241
		c7.302,0,13.241,5.94,13.241,13.241C105.483,342.508,99.543,348.448,92.241,348.448z M92.241,330.793
		c-2.435,0-4.414,1.978-4.414,4.414c0,2.435,1.978,4.414,4.414,4.414s4.414-1.978,4.414-4.414
		C96.655,332.772,94.677,330.793,92.241,330.793z"/>
	<path style="fill:#F5F5F5;" d="M109.897,348.448c-7.302,0-13.241-5.94-13.241-13.241c0-7.302,5.94-13.241,13.241-13.241
		c7.302,0,13.241,5.94,13.241,13.241S117.198,348.448,109.897,348.448z M109.897,330.793c-2.435,0-4.414,1.978-4.414,4.414
		c0,2.435,1.978,4.414,4.414,4.414c2.435,0,4.414-1.978,4.414-4.414C114.31,332.772,112.332,330.793,109.897,330.793z"/>
	<path style="fill:#F5F5F5;" d="M127.552,357.276c-7.302,0-13.241-5.94-13.241-13.241c0-7.302,5.94-13.241,13.241-13.241
		c7.302,0,13.241,5.94,13.241,13.241S134.853,357.276,127.552,357.276z M127.552,339.621c-2.435,0-4.414,1.978-4.414,4.414
		c0,2.435,1.978,4.414,4.414,4.414c2.435,0,4.414-1.978,4.414-4.414S129.987,339.621,127.552,339.621z"/>
	<path style="fill:#F5F5F5;" d="M74.586,357.276c-7.302,0-13.241-5.94-13.241-13.241c0-7.302,5.94-13.241,13.241-13.241
		c7.302,0,13.241,5.94,13.241,13.241C87.828,351.336,81.888,357.276,74.586,357.276z M74.586,339.621
		c-2.435,0-4.414,1.978-4.414,4.414c0,2.435,1.978,4.414,4.414,4.414S79,346.47,79,344.034
		C79,341.599,77.022,339.621,74.586,339.621z"/>
</g>
<path style="fill:#FAB446;" d="M127.552,432.31v4.414c0,2.434-1.98,4.414-4.414,4.414s-4.414-1.98-4.414-4.414v-4.414H127.552
	 M136.379,423.483h-26.483v13.241c0,7.302,5.94,13.241,13.241,13.241c7.302,0,13.241-5.94,13.241-13.241v-13.241H136.379z"/>
<path style="fill:#FFA0D2;" d="M123.138,405.828L123.138,405.828c-4.875,0-8.828-3.953-8.828-8.828v-8.828
	c0-4.875,3.953-8.828,8.828-8.828l0,0c4.875,0,8.828,3.953,8.828,8.828V397C131.966,401.875,128.013,405.828,123.138,405.828z"/>
<circle style="fill:#5064AA;" cx="101.07" cy="414.65" r="13.241"/>
<rect x="96.66" y="317.55" style="fill:#FAB446;" width="8.828" height="26.483"/>
<path style="fill:#C8414B;" d="M74.586,361.69l-8.828-8.828l5.171-5.171c7.993-7.993,18.835-12.484,30.14-12.484l0,0
	c11.305,0,22.146,4.491,30.14,12.484l5.171,5.171l-8.828,8.828H74.586z"/>
<g>
	<circle style="fill:#FFD250;" cx="101.07" cy="352.86" r="4.414"/>
	<circle style="fill:#FFD250;" cx="83.41" cy="352.86" r="4.414"/>
	<circle style="fill:#FFD250;" cx="118.72" cy="352.86" r="4.414"/>
</g>
<g>
	<rect x="21.62" y="397" style="fill:#C8414B;" width="44.14" height="8.828"/>
	<polygon style="fill:#C8414B;" points="21.621,432.31 48.103,423.483 48.103,414.655 21.621,423.483 	"/>
</g>
</svg>
